# xmcd
#
# Track frame offsets:
#	150
#	19553
#	42183
#	61503
#	79339
#	104188
#	124425
#	141253
#	161074
#	179052
#	199785
#	213573
#
# Disc length: 3069 seconds
# Revision: 0
# Processed by: cddbd v1.5.2PL0 Copyright (c) Steve Scherf et al.
# Submitted via: dBpowerAMP V12.0
#
DISCID=b40bfb0c
DTITLE=Céline Rétory - Kreyol Ma Voix
DYEAR=2011
DGENRE=World
TTITLE0=Doucè
TTITLE1=Cette Histoire
TTITLE2=Pli Bel
TTITLE3=La Confiance
TTITLE4=Gadé
TTITLE5=Ton Jeu
TTITLE6=Patrimwa'n
TTITLE7=Pé Ké Ménéw Lwen
TTITLE8=Si Heureux
TTITLE9=Sans Toi
TTITLE10=Je T'Appelle
TTITLE11=Dans Tes Bras
EXTD=
EXTT0=
EXTT1=
EXTT2=
EXTT3=
EXTT4=
EXTT5=
EXTT6=
EXTT7=
EXTT8=
EXTT9=
EXTT10=
EXTT11=
PLAYORDER=
